<?xml version="1.0" encoding="UTF-8"?>
<svg width="40px" height="40px" viewBox="0 0 40 40" version="1.1" xmlns="http://www.w3.org/2000/svg" xmlns:xlink="http://www.w3.org/1999/xlink">
    <title>7D3B8832-F02E-4F77-818D-DD4645C5C4C1</title>
    <g id="Page-1" stroke="none" stroke-width="1" fill="none" fill-rule="evenodd">
        <g id="Landing-Page" transform="translate(-1131, -196)">
            <g id="Group-10" transform="translate(1131, 196)">
                <circle id="Oval-Copy-2" fill="#F4F2FF" cx="20" cy="20" r="20"></circle>
                <g id="category-2" transform="translate(13, 13)" fill="#B7ABF9" fill-rule="nonzero">
                    <g id="category">
                        <path d="M5.39625598,6.8392663 L1.49144146,6.8392663 C0.66823783,6.83850271 0.00101846276,6.17139331 0,5.34807065 L0,1.49119565 C0.00101846276,0.667872996 0.66823783,0.000763593238 1.49144146,0 L5.39625598,0 C6.21927923,0.00101811191 6.88621758,0.668053119 6.88723555,1.49119565 L6.88723555,5.34807065 C6.88621758,6.17121319 6.21927923,6.83824819 5.39625598,6.8392663 Z M1.49144146,1.1548913 C1.30576289,1.155145 1.15523249,1.30549069 1.15472395,1.49119565 L1.15472395,5.34807065 C1.15523249,5.53377561 1.30576289,5.68412131 1.49144146,5.684375 L5.39625598,5.684375 C5.58185934,5.68412054 5.73225717,5.53370091 5.73251159,5.34807065 L5.73251159,1.49119565 C5.73225717,1.30556539 5.58185934,1.15514577 5.39625598,1.1548913 L1.49144146,1.1548913 Z" id="Shape"></path>
                        <path d="M5.41519345,15 L1.51037893,15 C0.687100582,14.9989819 0.019955438,14.3317401 0.0189374728,13.5083424 L0.0189374728,9.65192935 C0.0199559356,8.82860669 0.687175303,8.16149729 1.51037893,8.1607337 L5.41519345,8.1607337 C6.23785592,8.16226051 6.90423251,8.82914686 6.90524924,9.65192935 L6.90524924,13.5083424 C6.90448688,14.3313053 6.238036,14.9984726 5.41519345,15 Z M1.51037893,9.315625 C1.32470036,9.31587869 1.17416996,9.46622439 1.17366143,9.65192935 L1.17366143,13.5083424 C1.17391585,13.6942278 1.32452048,13.8448542 1.51037893,13.8451087 L5.41519345,13.8451087 C5.6008715,13.8446001 5.75119541,13.6940479 5.75144907,13.5083424 L5.75144907,9.65192935 C5.75119464,9.46629909 5.60079681,9.31587946 5.41519345,9.315625 L1.51037893,9.315625 Z" id="Shape"></path>
                        <path d="M13.506711,15 L9.60189646,15 C8.77861812,14.9989819 8.11147297,14.3317401 8.11045501,13.5083424 L8.11045501,9.65192935 C8.11147347,8.82860669 8.77869284,8.16149729 9.60189646,8.1607337 L13.506711,8.1607337 C14.3297342,8.16175181 14.9966726,8.82878681 14.9976906,9.65192935 L14.9976906,13.5083424 C14.9969271,14.3316653 14.3299143,14.9989814 13.506711,15 L13.506711,15 Z M9.60189646,9.31793478 C9.41621789,9.31818848 9.2656875,9.46853417 9.26517896,9.65423913 L9.26517896,13.5106522 C9.26543339,13.6965376 9.41603801,13.847164 9.60189646,13.8474185 L13.506711,13.8474185 C13.692389,13.8469099 13.8427129,13.6963577 13.8429666,13.5106522 L13.8429666,9.65192935 C13.8427122,9.46629909 13.6923143,9.31587946 13.506711,9.315625 L9.60189646,9.31793478 Z" id="Shape"></path>
                        <path d="M11.5566132,6.83927669 C9.67228381,6.82525874 8.15475628,5.28860691 8.1640333,3.40397545 C8.17339573,1.51934398 9.70604649,-0.00221998372 11.5904222,0.0024039809 C13.4747979,0.00704906379 15,1.53613353 15,3.42078804 C14.990584,5.31477164 13.4503401,6.84387384 11.5566132,6.83927669 L11.5566132,6.83927669 Z M11.5566132,1.15720109 C10.3100526,1.17119601 9.30951864,2.19075145 9.31882117,3.43753652 C9.32812369,4.68432159 10.3437596,5.68882961 11.5903902,5.68423273 C12.8370208,5.67960421 13.8451975,4.66760783 13.845276,3.42078804 C13.8376444,2.16351698 12.8137148,1.14977272 11.5566132,1.15487201 L11.5566132,1.15720109 Z" id="Shape"></path>
                    </g>
                </g>
            </g>
        </g>
    </g>
</svg>