<?xml version="1.0" encoding="UTF-8"?>
<svg width="48px" height="48px" viewBox="0 0 48 48" version="1.1" xmlns="http://www.w3.org/2000/svg" xmlns:xlink="http://www.w3.org/1999/xlink">
    <title>CE525659-6EA8-44C8-99E1-FDC94C8B58B9</title>
    <defs>
        <linearGradient x1="20.315064%" y1="9.82934033%" x2="80.8336068%" y2="89.2845422%" id="linearGradient-1">
            <stop stop-color="#226AEA" offset="0%"></stop>
            <stop stop-color="#B84CDB" offset="100%"></stop>
        </linearGradient>
    </defs>
    <g id="Page-1" stroke="none" stroke-width="1" fill="none" fill-rule="evenodd">
        <g id="Landing-Page" transform="translate(-1219, -2681)">
            <g id="download-arrow" transform="translate(1219, 2681)">
                <path d="M24,0 C37.2011815,0 48,10.7988185 48,24 C48,37.2011815 37.2011815,48 24,48 C10.7988185,48 0,37.2011815 0,24 C0,10.7988185 10.7988185,0 24,0 Z" id="Path" fill="url(#linearGradient-1)"></path>
                <g id="_2457483189104-2" transform="translate(19, 16)" fill="#FFFFFF" fill-rule="nonzero">
                    <g id="_2457483189104">
                        <path d="M9.70165746,10.3177629 C10.0939227,9.93422307 10.0939227,9.30759453 9.70165746,8.92405466 C9.30939227,8.54051478 8.66850829,8.54051478 8.27624309,8.92405466 L6.50276243,10.6580871 L6.50276243,0.983158564 C6.50276243,0.437559581 6.04972376,0 5.49723757,0 C4.93922652,0 4.49171271,0.442961551 4.49171271,0.983158564 L4.49171271,10.6580871 L2.71823204,8.92405466 C2.32596685,8.54051478 1.68508287,8.54051478 1.29281768,8.92405466 C0.900552486,9.30759453 0.900552486,9.93422307 1.29281768,10.3177629 L4.78453039,13.7318081 C5.17679558,14.115348 5.81767956,14.115348 6.20994475,13.7318081 L9.70165746,10.3177629 Z" id="Path"></path>
                        <path d="M8.98342541,14.0235145 C8.98342541,12.7270416 11,12.7270416 11,14.0235145 L11,16.0168414 C11,16.5624404 10.5469613,17 9.99447514,17 L1.00552486,17 C0.447513812,17 0,16.5570384 0,16.0168414 L0,14.0235145 C0,12.7270416 2.01657459,12.7270416 2.01657459,14.0235145 L2.01657459,15.0282809 L8.98895028,15.0282809 L8.98895028,14.0235145 L8.98342541,14.0235145 Z" id="Path"></path>
                    </g>
                </g>
            </g>
        </g>
    </g>
</svg>