<?xml version="1.0" encoding="UTF-8"?>
<svg width="54px" height="53px" viewBox="0 0 54 53" version="1.1" xmlns="http://www.w3.org/2000/svg" xmlns:xlink="http://www.w3.org/1999/xlink">
    <title>A97E7BDC-46B9-461C-B344-CDB0E43B0B5F</title>
    <g id="Page-1" stroke="none" stroke-width="1" fill="none" fill-rule="evenodd">
        <g id="Landing-Page" transform="translate(-161, -1674)" fill-rule="nonzero">
            <g id="star" transform="translate(161, 1674)">
                <ellipse id="Oval" fill="#FFCD00" cx="27" cy="26.5" rx="27" ry="26.5"></ellipse>
                <g id="Group">
                    <path d="M27,53 C19.5441559,53 13.5,47.0677729 13.5,39.75 C13.5,32.4322271 19.5441559,26.5 27,26.5 L54,26.5 C54,41.1355459 41.9116882,53 27,53 Z" id="Path" fill="#FFB400"></path>
                    <path d="M27,0 C34.4558441,0 40.5,5.93222706 40.5,13.25 C40.5,20.5677729 34.4558441,26.5 27,26.5 L0,26.5 C0,11.8644541 12.0883118,0 27,0 Z" id="Path" fill="#FFEB00"></path>
                    <path d="M10.125,26.5016563 L43.8750104,26.5 C43.8803881,31.2541754 41.7989713,35.7802385 38.1628125,38.9212125 L15.8364281,38.9212125 C15.5732344,38.6934229 15.3167906,38.4569932 15.0670969,38.2119234 C11.9027112,35.1061855 10.125,30.8938669 10.125,26.5016562 L10.125,26.5016563 Z" id="Path" fill="#46321E"></path>
                    <path d="M15.8364281,38.9212125 C18.348371,35.2929167 22.5288786,33.1220368 26.9983125,33.124997 L27.0016875,33.124997 C31.4709223,33.1220655 35.651271,35.2927261 38.1633188,38.9207156 C35.0835598,41.5948716 31.111981,43.068396 27,43.0625176 L26.9983125,43.0625176 C22.8879473,43.0625176 18.9189297,41.5899193 15.8364281,38.9212125 Z" id="Path" fill="#C8005A"></path>
                </g>
                <polygon id="Path" fill="#FF961E" points="46.5893438 18.3363438 43.875 26.5364375 36.7680938 21.4691406 27.9829688 21.4691406 30.6981563 13.2682188 27.9829688 5.06895313 36.7680937 5.06895313 43.875 0 46.5893437 8.20092188 53.69625 13.2682188"></polygon>
                <polygon id="Path" fill="#FF961E" points="7.41065625 18.3363438 10.125 26.5364375 17.2319063 21.4691406 26.017875 21.4691406 23.3018437 13.2682188 26.017875 5.06895313 17.2319063 5.06895313 10.125 0 7.41065625 8.20092188 0.30375 13.2682188"></polygon>
            </g>
        </g>
    </g>
</svg>