<?xml version="1.0" encoding="UTF-8"?>
<svg width="40px" height="40px" viewBox="0 0 40 40" version="1.1" xmlns="http://www.w3.org/2000/svg" xmlns:xlink="http://www.w3.org/1999/xlink">
    <title>E1836812-BB70-443E-AA6B-51DD4BB9212D</title>
    <g id="Page-1" stroke="none" stroke-width="1" fill="none" fill-rule="evenodd">
        <g id="Landing-Page" transform="translate(-870, -196)">
            <g id="Group-11" transform="translate(870, 196)">
                <circle id="Oval" fill="#F4F2FF" cx="20" cy="20" r="20"></circle>
                <g id="folder" transform="translate(11, 13)" fill="#B7ABF9" fill-rule="nonzero">
                    <path d="M17.8596115,1.88714316 L11.3254623,1.88714316 C11.3164749,1.88714316 11.3085022,1.8826658 11.3047333,1.87547488 L10.6308212,0.596032771 C10.4406357,0.233908607 10.0391007,0 9.60770417,0 L5.65758513,0 C5.0287552,0 4.51719664,0.478942781 4.51719664,1.06764897 L4.51719664,2.11413222 L3.39869692,2.11413222 C2.77001189,2.11413222 2.25845337,2.59293933 2.25845337,3.18150981 L2.25845337,4.22799304 L1.1403885,4.22799304 C0.511558523,4.22799304 0,4.70680018 0,5.29537066 L0,13.9326224 C0,14.5211929 0.511558523,15 1.1403885,15 L13.3425598,15 C13.9713898,15 14.4829483,14.5211929 14.4829483,13.9326224 L14.4829483,12.8860035 L15.6011581,12.8860035 C16.2299881,12.8860035 16.7415466,12.4071964 16.7415466,11.8187615 L16.7415466,10.7722783 L17.8596115,10.7722783 C18.4884415,10.7722783 19,10.2934712 19,9.70490068 L19,2.95479212 C19,2.36608597 18.4884415,1.88714316 17.8596115,1.88714316 Z M13.3425598,13.9539238 L1.1403885,13.9539238 C1.12792205,13.9539238 1.11763002,13.9444264 1.11763002,13.9326224 L1.11763002,5.29537066 C1.11763002,5.28356672 1.12792205,5.27406925 1.1403885,5.27406925 L5.09079743,5.27406925 C5.09456634,5.27406925 5.09819029,5.27529034 5.10137939,5.27691848 C5.10181428,5.27718985 5.10239411,5.27705418 5.10282896,5.27732552 C5.10413362,5.2781396 5.1048584,5.27963203 5.10601807,5.28058179 C5.10790252,5.28234559 5.1100769,5.28383805 5.11123657,5.2860089 L5.78543855,6.56585802 C5.97895815,6.93300229 6.37092592,7.16121241 6.8082657,7.16121241 L13.3425598,7.16121241 C13.3456039,7.16121241 13.3486481,7.16175512 13.3514023,7.16284054 C13.3595199,7.16609681 13.3651733,7.17369477 13.3651733,7.18251382 C13.3651733,10.8713231 13.3653183,13.8989743 13.3653183,13.9326224 C13.3653183,13.9444264 13.3551712,13.9539238 13.3425598,13.9539238 Z M15.6239166,11.8187615 C15.6239166,11.8304298 15.6137695,11.8399273 15.6013031,11.8399273 L14.4829483,11.8399273 L14.4829483,7.18251382 C14.4829483,6.59380767 13.9712448,6.11500056 13.3424149,6.11500056 L6.8082657,6.11500056 C6.79985808,6.11500056 6.79174041,6.11025183 6.78797151,6.10306091 L6.11362458,4.82321176 C5.92024993,4.45647456 5.52842711,4.22799304 5.09094238,4.22799304 L3.37608336,4.22799304 L3.37608336,3.18150981 C3.37608336,3.16970583 3.38623047,3.1602084 3.39869692,3.1602084 L7.3492508,3.1602084 C7.35794831,3.1602084 7.36577605,3.16468576 7.36968994,3.17228372 L8.04403687,4.45213287 C8.23770142,4.81927711 8.62952424,5.04735156 9.06671906,5.04735156 L15.6013031,5.04735156 C15.6137695,5.04735156 15.6239166,5.05684903 15.6239166,5.06865301 L15.6239166,11.8187615 Z M17.88237,9.70490068 C17.88237,9.71670466 17.8722229,9.72620212 17.8596115,9.72620212 L16.7415466,9.72620212 L16.7415466,5.06865301 C16.7415466,4.48008249 16.2301331,4.00127538 15.6013031,4.00127538 L9.06671906,4.00127538 C9.0581665,4.00127538 9.05019378,3.99652665 9.04627993,3.98920003 L8.37207795,2.70975795 C8.17884829,2.34234234 7.78688051,2.11413222 7.3492508,2.11413222 L5.63482666,2.11413222 L5.63482666,1.06764897 C5.63482666,1.05570932 5.64497377,1.04607621 5.65744019,1.04607621 L9.60755922,1.04607621 C9.61611175,1.04607621 9.62408447,1.05055357 9.62799836,1.05801586 L10.3023453,2.33827199 C10.4958649,2.70514489 10.8878327,2.93321937 11.3254623,2.93321937 L17.8596115,2.93321937 C17.872078,2.93321937 17.882225,2.94285247 17.882225,2.95492783 L17.882225,9.70490068 L17.88237,9.70490068 Z" id="Shape"></path>
                </g>
            </g>
        </g>
    </g>
</svg>