<?xml version="1.0" encoding="UTF-8"?>
<svg width="44px" height="48px" viewBox="0 0 44 48" version="1.1" xmlns="http://www.w3.org/2000/svg" xmlns:xlink="http://www.w3.org/1999/xlink">
    <title>990AD4AA-4DA6-494C-BA38-413EEF424971</title>
    <defs>
        <linearGradient x1="7.98610781%" y1="0%" x2="92.0138922%" y2="100%" id="linearGradient-1">
            <stop stop-color="#58BBF7" offset="0%"></stop>
            <stop stop-color="#1C22CC" offset="100%"></stop>
        </linearGradient>
    </defs>
    <g id="Page-1" stroke="none" stroke-width="1" fill="none" fill-rule="evenodd">
        <g id="Landing-Page" transform="translate(-1221, -2866)" fill-rule="nonzero">
            <g id="Group-2" transform="translate(1221, 2866)">
                <path d="M31.589744,4.2065378 C28.957825,3.27190201 26.4329192,2.05711467 24.0580951,0.582896882 C22.7950276,-0.194298961 21.2049741,-0.194298961 19.9419065,0.582896882 C17.5671002,2.05714743 15.0421909,3.2719365 12.4102576,4.2065378 C9.54134591,5.22320218 6.5640177,5.89944561 3.53886513,6.22150571 C1.52754683,6.42898934 -0.00130870763,8.13218644 0,10.16392 L0,21.9437516 C0.00317444872,30.7950425 4.77811725,38.9499319 12.4763704,43.2515266 L20.0807209,47.4962529 C21.2721612,48.1675199 22.7252443,48.1679407 23.9170695,47.4973639 L31.5236312,43.2515266 C39.2218844,38.9499319 43.9968272,30.7950425 44,21.9437516 L44,10.16392 C44.0013451,8.13216041 42.4724806,6.42892396 40.4611365,6.22143769 C37.4359867,5.8993996 34.4586585,5.22317902 31.589744,4.2065378 Z" id="Path-Copy-3" fill="url(#linearGradient-1)"></path>
                <path d="M21.0510779,29 C20.7571581,29.0004465 20.4734429,28.8700823 20.2543327,28.6338961 L17.4051689,25.5809582 C17.0834941,25.2382116 16.9382867,24.7143354 17.0244184,24.2072947 C17.1105501,23.7002539 17.4148859,23.2873717 17.8224219,23.1246702 C18.2299579,22.9619687 18.6785452,23.0742596 18.9986693,23.4191099 L20.9749198,25.5362253 L24.925471,20.4561561 C25.3788416,19.8746885 26.1370122,19.8452018 26.6205255,20.390232 C27.1038996,20.9367628 27.1288025,21.8520055 26.6761768,22.435553 L21.9269207,28.543249 C21.7004117,28.8357992 21.3830244,29.0013134 21.0510779,29 Z" id="Path-Copy-4" fill="#FFFFFF"></path>
            </g>
        </g>
    </g>
</svg>