<?xml version="1.0" encoding="UTF-8"?>
<svg width="53px" height="53px" viewBox="0 0 53 53" version="1.1" xmlns="http://www.w3.org/2000/svg" xmlns:xlink="http://www.w3.org/1999/xlink">
    <title>B62024D0-BAA1-4230-B7FB-4444FFF63347</title>
    <g id="Page-1" stroke="none" stroke-width="1" fill="none" fill-rule="evenodd">
        <g id="Landing-Page" transform="translate(-146, -2335)" fill-rule="nonzero">
            <g id="favorite" transform="translate(146, 2335)">
                <ellipse id="Oval" fill="#006DF0" cx="26.500299" cy="26.5000111" rx="26.499701" ry="26.4999889"></ellipse>
                <path d="M26.500299,0 C15.7822253,0 6.11955385,6.45660787 2.01793429,16.3589283 C-2.08368527,26.2612488 0.183482109,37.659304 7.76226897,45.2382446 L45.2383289,7.76177763 C40.2739029,2.78428434 33.5302594,-0.00909954664 26.500299,0 Z" id="Path" fill="#2488FF"></path>
                <path d="M40.5615886,21.0172548 L31.1496258,21.0172548 C30.753766,21.0172303 30.4029391,20.7623154 30.2806184,20.385824 L27.371134,11.4306554 C27.2478797,11.0556581 26.89777,10.8021944 26.5030403,10.8021944 C26.1083106,10.8021944 25.758201,11.0556581 25.6349467,11.4306554 L22.7254622,20.385824 C22.6031415,20.7623154 22.2523146,21.0172303 21.8564548,21.0172548 L12.444492,21.0172548 C12.04859,21.017179 11.6976711,21.2720585 11.5752892,21.6485743 C11.4529072,22.0250902 11.586903,22.4375887 11.9071877,22.6703058 L19.5235673,28.2042346 C19.8437319,28.4369884 19.9776398,28.8494145 19.8552705,29.2258548 L16.9457861,38.1810235 C16.827014,38.5556596 16.9610869,38.964278 17.2787212,39.1957205 C17.5963555,39.427163 18.0263962,39.429583 18.3466151,39.2017299 L25.9629947,33.6678012 C26.2833469,33.4349192 26.717251,33.4349192 27.0376032,33.6678012 L34.6539828,39.2017299 C34.9742444,39.4345327 35.4079964,39.4345981 35.7283282,39.2018919 C36.0486599,38.9691858 36.1826867,38.5566553 36.0602946,38.1801097 L33.1508101,29.224941 C33.0284408,28.8485007 33.1623487,28.4360746 33.4825133,28.2033208 L41.0988929,22.6693921 C41.4183643,22.436436 41.5517742,22.0244367 41.429491,21.6484324 C41.3072077,21.2724281 40.9569734,21.017722 40.5615886,21.0172548 L40.5615886,21.0172548 Z" id="Path" fill="#FFCD00"></path>
                <g id="Group" transform="translate(2.7419, 2.7414)" fill="#F1F2F2">
                    <path d="M21.9308152,1.89977506 C21.4261469,1.91945733 21.0010769,1.52629404 20.9813949,1.02162026 C20.9617128,0.516946484 21.3548718,0.0918719127 21.8595401,0.0721896248 C22.4882227,0.0255861961 23.1278706,0 23.7583808,0 C24.263049,0 24.6721635,0.409118947 24.6721635,0.913792719 C24.6721635,1.41846649 24.263049,1.82758542 23.7583808,1.82758544 C23.1753873,1.82758544 22.5850836,1.85043026 22.003004,1.89703369 L21.9308152,1.89977506 Z" id="Path"></path>
                    <path d="M0.913810887,24.6724034 C0.409142585,24.6724034 0,24.2632845 0,23.7586107 C-0.0167018999,12.8270734 7.4407275,3.30025484 18.0563761,0.691741089 C18.5466614,0.570619381 19.0423036,0.869889882 19.163424,1.36018046 C19.2845444,1.85047104 18.9852771,2.34611863 18.4949919,2.46724034 C8.69679272,4.87570041 1.81345837,13.6686517 1.82759368,23.7586107 C1.82759368,24.2632845 1.41847919,24.6724034 0.913810887,24.6724034 L0.913810887,24.6724034 Z" id="Path"></path>
                </g>
            </g>
        </g>
    </g>
</svg>