<?xml version="1.0" encoding="UTF-8"?>
<svg width="58px" height="53px" viewBox="0 0 58 53" version="1.1" xmlns="http://www.w3.org/2000/svg" xmlns:xlink="http://www.w3.org/1999/xlink">
    <title>5A58406A-EDD1-48B1-BAAC-D9E467762433</title>
    <defs>
        <linearGradient x1="50%" y1="3.97146963%" x2="50%" y2="101.418215%" id="linearGradient-1">
            <stop stop-color="#FFA1AE" offset="0%"></stop>
            <stop stop-color="#FF4565" offset="100%"></stop>
        </linearGradient>
        <linearGradient x1="49.9247399%" y1="57.1320594%" x2="62.4889473%" y2="67.644435%" id="linearGradient-2">
            <stop stop-color="#FE0364" stop-opacity="0" offset="0%"></stop>
            <stop stop-color="#F90362" stop-opacity="0.234" offset="23.43%"></stop>
            <stop stop-color="#EA035B" stop-opacity="0.517" offset="51.73%"></stop>
            <stop stop-color="#D20250" stop-opacity="0.824" offset="82.43%"></stop>
            <stop stop-color="#C00148" offset="100%"></stop>
        </linearGradient>
        <linearGradient x1="50.0002052%" y1="17.4435788%" x2="50.0002052%" y2="94.7381155%" id="linearGradient-3">
            <stop stop-color="#FE0364" stop-opacity="0" offset="0%"></stop>
            <stop stop-color="#F90362" stop-opacity="0.234" offset="23.43%"></stop>
            <stop stop-color="#EA035B" stop-opacity="0.517" offset="51.73%"></stop>
            <stop stop-color="#D20250" stop-opacity="0.824" offset="82.43%"></stop>
            <stop stop-color="#C00148" offset="100%"></stop>
        </linearGradient>
        <linearGradient x1="27.1787488%" y1="33.5446865%" x2="76.7022245%" y2="69.2536494%" id="linearGradient-4">
            <stop stop-color="#FFA1AE" offset="0%"></stop>
            <stop stop-color="#FF4565" offset="100%"></stop>
        </linearGradient>
        <linearGradient x1="49.8921372%" y1="45.058006%" x2="41.831734%" y2="25.6056591%" id="linearGradient-5">
            <stop stop-color="#FE0364" stop-opacity="0" offset="0%"></stop>
            <stop stop-color="#F90362" stop-opacity="0.234" offset="23.43%"></stop>
            <stop stop-color="#EA035B" stop-opacity="0.517" offset="51.73%"></stop>
            <stop stop-color="#D20250" stop-opacity="0.824" offset="82.43%"></stop>
            <stop stop-color="#C00148" offset="100%"></stop>
        </linearGradient>
        <linearGradient x1="50%" y1="52.9147225%" x2="50%" y2="106.902497%" id="linearGradient-6">
            <stop stop-color="#FE0364" stop-opacity="0" offset="0%"></stop>
            <stop stop-color="#F90362" stop-opacity="0.234" offset="23.43%"></stop>
            <stop stop-color="#EA035B" stop-opacity="0.517" offset="51.73%"></stop>
            <stop stop-color="#D20250" stop-opacity="0.824" offset="82.43%"></stop>
            <stop stop-color="#C00148" offset="100%"></stop>
        </linearGradient>
        <linearGradient x1="54.7431579%" y1="34.6542506%" x2="47.4289018%" y2="23.5221356%" id="linearGradient-7">
            <stop stop-color="#FE0364" stop-opacity="0" offset="0%"></stop>
            <stop stop-color="#F90362" stop-opacity="0.234" offset="23.43%"></stop>
            <stop stop-color="#EA035B" stop-opacity="0.517" offset="51.73%"></stop>
            <stop stop-color="#D20250" stop-opacity="0.824" offset="82.43%"></stop>
            <stop stop-color="#C00148" offset="100%"></stop>
        </linearGradient>
        <linearGradient x1="48.9856519%" y1="59.5265216%" x2="58.6386293%" y2="77.2976092%" id="linearGradient-8">
            <stop stop-color="#FE0364" stop-opacity="0" offset="0%"></stop>
            <stop stop-color="#F90362" stop-opacity="0.234" offset="23.43%"></stop>
            <stop stop-color="#EA035B" stop-opacity="0.517" offset="51.73%"></stop>
            <stop stop-color="#D20250" stop-opacity="0.824" offset="82.43%"></stop>
            <stop stop-color="#C00148" offset="100%"></stop>
        </linearGradient>
        <linearGradient x1="27.1794282%" y1="33.5450813%" x2="76.7011101%" y2="69.2532579%" id="linearGradient-9">
            <stop stop-color="#F5FBFF" offset="0%"></stop>
            <stop stop-color="#DBD5EF" offset="100%"></stop>
        </linearGradient>
        <linearGradient x1="27.1800028%" y1="33.5449115%" x2="76.7004871%" y2="69.2531648%" id="linearGradient-10">
            <stop stop-color="#F5FBFF" offset="0%"></stop>
            <stop stop-color="#DBD5EF" offset="100%"></stop>
        </linearGradient>
        <linearGradient x1="49.6199816%" y1="45.0405274%" x2="39.7162121%" y2="22.5208314%" id="linearGradient-11">
            <stop stop-color="#DBD5EF" stop-opacity="0" offset="0%"></stop>
            <stop stop-color="#D9D2EE" stop-opacity="0.285" offset="28.53%"></stop>
            <stop stop-color="#D4C9E9" stop-opacity="0.474" offset="47.39%"></stop>
            <stop stop-color="#CBBAE2" stop-opacity="0.635" offset="63.46%"></stop>
            <stop stop-color="#BFA5D7" stop-opacity="0.78" offset="77.95%"></stop>
            <stop stop-color="#AF8ACA" stop-opacity="0.913" offset="91.26%"></stop>
            <stop stop-color="#A274BF" offset="100%"></stop>
        </linearGradient>
        <linearGradient x1="29.1569442%" y1="41.7815944%" x2="17.6557703%" y2="35.048405%" id="linearGradient-12">
            <stop stop-color="#DBD5EF" stop-opacity="0" offset="0%"></stop>
            <stop stop-color="#D9D2EE" stop-opacity="0.285" offset="28.53%"></stop>
            <stop stop-color="#D4C9E9" stop-opacity="0.474" offset="47.39%"></stop>
            <stop stop-color="#CBBAE2" stop-opacity="0.635" offset="63.46%"></stop>
            <stop stop-color="#BFA5D7" stop-opacity="0.78" offset="77.95%"></stop>
            <stop stop-color="#AF8ACA" stop-opacity="0.913" offset="91.26%"></stop>
            <stop stop-color="#A274BF" offset="100%"></stop>
        </linearGradient>
        <linearGradient x1="49.9996377%" y1="12.1720548%" x2="49.9996377%" y2="73.7950685%" id="linearGradient-13">
            <stop stop-color="#B3DAFE" offset="0%"></stop>
            <stop stop-color="#0182FC" offset="100%"></stop>
        </linearGradient>
        <linearGradient x1="49.999699%" y1="42.1025433%" x2="49.999699%" y2="88.1695028%" id="linearGradient-14">
            <stop stop-color="#314DC9" stop-opacity="0" offset="0%"></stop>
            <stop stop-color="#304BC4" stop-opacity="0.276" offset="27.61%"></stop>
            <stop stop-color="#2B45B8" stop-opacity="0.563" offset="56.28%"></stop>
            <stop stop-color="#243BA3" stop-opacity="0.854" offset="85.35%"></stop>
            <stop stop-color="#1F3596" offset="100%"></stop>
        </linearGradient>
        <linearGradient x1="40.3206652%" y1="56.1995428%" x2="24.1615438%" y2="65.3612182%" id="linearGradient-15">
            <stop stop-color="#314DC9" stop-opacity="0" offset="0%"></stop>
            <stop stop-color="#304BC4" stop-opacity="0.276" offset="27.61%"></stop>
            <stop stop-color="#2B45B8" stop-opacity="0.563" offset="56.28%"></stop>
            <stop stop-color="#243BA3" stop-opacity="0.854" offset="85.35%"></stop>
            <stop stop-color="#1F3596" offset="100%"></stop>
        </linearGradient>
        <linearGradient x1="48.1072165%" y1="51.8784868%" x2="34.1436426%" y2="63.6173187%" id="linearGradient-16">
            <stop stop-color="#314DC9" stop-opacity="0" offset="0%"></stop>
            <stop stop-color="#304BC4" stop-opacity="0.276" offset="27.61%"></stop>
            <stop stop-color="#2B45B8" stop-opacity="0.563" offset="56.28%"></stop>
            <stop stop-color="#243BA3" stop-opacity="0.854" offset="85.35%"></stop>
            <stop stop-color="#1F3596" offset="100%"></stop>
        </linearGradient>
        <linearGradient x1="41.5885973%" y1="54.0135325%" x2="10.7115108%" y2="63.9151694%" id="linearGradient-17">
            <stop stop-color="#314DC9" stop-opacity="0" offset="0%"></stop>
            <stop stop-color="#304BC4" stop-opacity="0.276" offset="27.61%"></stop>
            <stop stop-color="#2B45B8" stop-opacity="0.563" offset="56.28%"></stop>
            <stop stop-color="#243BA3" stop-opacity="0.854" offset="85.35%"></stop>
            <stop stop-color="#1F3596" offset="100%"></stop>
        </linearGradient>
        <linearGradient x1="52.21348%" y1="50.3473413%" x2="68.4477508%" y2="43.2379076%" id="linearGradient-18">
            <stop stop-color="#314DC9" stop-opacity="0" offset="0%"></stop>
            <stop stop-color="#304BC4" stop-opacity="0.276" offset="27.61%"></stop>
            <stop stop-color="#2B45B8" stop-opacity="0.563" offset="56.28%"></stop>
            <stop stop-color="#243BA3" stop-opacity="0.854" offset="85.35%"></stop>
            <stop stop-color="#1F3596" offset="100%"></stop>
        </linearGradient>
        <linearGradient x1="39.023789%" y1="40.5430132%" x2="59.023607%" y2="56.1548071%" id="linearGradient-19">
            <stop stop-color="#B3DAFE" offset="0%"></stop>
            <stop stop-color="#0182FC" offset="100%"></stop>
        </linearGradient>
        <linearGradient x1="49.9998925%" y1="49.259519%" x2="49.9998925%" y2="106.101233%" id="linearGradient-20">
            <stop stop-color="#314DC9" stop-opacity="0" offset="0%"></stop>
            <stop stop-color="#304BC4" stop-opacity="0.276" offset="27.61%"></stop>
            <stop stop-color="#2B45B8" stop-opacity="0.563" offset="56.28%"></stop>
            <stop stop-color="#243BA3" stop-opacity="0.854" offset="85.35%"></stop>
            <stop stop-color="#1F3596" offset="100%"></stop>
        </linearGradient>
        <linearGradient x1="40.3206652%" y1="43.8004572%" x2="24.1615438%" y2="34.6387818%" id="linearGradient-21">
            <stop stop-color="#314DC9" stop-opacity="0" offset="0%"></stop>
            <stop stop-color="#304BC4" stop-opacity="0.276" offset="27.61%"></stop>
            <stop stop-color="#2B45B8" stop-opacity="0.563" offset="56.28%"></stop>
            <stop stop-color="#243BA3" stop-opacity="0.854" offset="85.35%"></stop>
            <stop stop-color="#1F3596" offset="100%"></stop>
        </linearGradient>
        <linearGradient x1="48.1072165%" y1="48.1215132%" x2="34.1436426%" y2="36.383109%" id="linearGradient-22">
            <stop stop-color="#314DC9" stop-opacity="0" offset="0%"></stop>
            <stop stop-color="#304BC4" stop-opacity="0.276" offset="27.61%"></stop>
            <stop stop-color="#2B45B8" stop-opacity="0.563" offset="56.28%"></stop>
            <stop stop-color="#243BA3" stop-opacity="0.854" offset="85.35%"></stop>
            <stop stop-color="#1F3596" offset="100%"></stop>
        </linearGradient>
        <linearGradient x1="41.5885973%" y1="45.9864675%" x2="10.7115108%" y2="36.0848306%" id="linearGradient-23">
            <stop stop-color="#314DC9" stop-opacity="0" offset="0%"></stop>
            <stop stop-color="#304BC4" stop-opacity="0.276" offset="27.61%"></stop>
            <stop stop-color="#2B45B8" stop-opacity="0.563" offset="56.28%"></stop>
            <stop stop-color="#243BA3" stop-opacity="0.854" offset="85.35%"></stop>
            <stop stop-color="#1F3596" offset="100%"></stop>
        </linearGradient>
        <linearGradient x1="52.21348%" y1="49.653371%" x2="68.4477508%" y2="56.7620924%" id="linearGradient-24">
            <stop stop-color="#314DC9" stop-opacity="0" offset="0%"></stop>
            <stop stop-color="#304BC4" stop-opacity="0.276" offset="27.61%"></stop>
            <stop stop-color="#2B45B8" stop-opacity="0.563" offset="56.28%"></stop>
            <stop stop-color="#243BA3" stop-opacity="0.854" offset="85.35%"></stop>
            <stop stop-color="#1F3596" offset="100%"></stop>
        </linearGradient>
        <linearGradient x1="50%" y1="12.1729807%" x2="50%" y2="73.7955683%" id="linearGradient-25">
            <stop stop-color="#5A5A5A" offset="0%"></stop>
            <stop stop-color="#444444" offset="100%"></stop>
        </linearGradient>
    </defs>
    <g id="Page-1" stroke="none" stroke-width="1" fill="none" fill-rule="evenodd">
        <g id="Landing-Page" transform="translate(-558, -2335)" fill-rule="nonzero">
            <g id="Group-3" transform="translate(521, 2289)">
                <g id="3d-target" transform="translate(37, 46)">
                    <g id="Group" transform="translate(9.333, 0)">
                        <path d="M27.6063008,0 L21.0605703,0 L21.0605703,52.9998872 L27.6063008,52.9998872 C39.2368867,52.9998872 48.6669844,41.1350442 48.6669844,26.5 C48.6669844,11.8649558 39.2368867,0 27.6063008,0 L27.6063008,0 Z" id="Path" fill="url(#linearGradient-1)"></path>
                        <path d="M27.6063008,0 L21.0605703,0 L21.0605703,52.9998872 L27.6063008,52.9998872 C39.2368867,52.9998872 48.6669844,41.1350442 48.6669844,26.5 C48.6669844,11.8649558 39.2368867,0 27.6063008,0 L27.6063008,0 Z" id="Path" fill="url(#linearGradient-2)"></path>
                        <path d="M21.060457,53 L27.6061875,53 C39.2368867,53 48.6669844,41.1350442 48.6669844,26.5 C48.6669844,25.2042152 48.5916523,23.9306607 48.4488047,22.68464 L21.060457,22.68464 L21.060457,53 Z" id="Path" fill="url(#linearGradient-3)"></path>
                        <g transform="translate(0, 0.0002)">
                            <ellipse id="Oval" fill="url(#linearGradient-4)" cx="21.060457" cy="26.4997743" rx="21.060457" ry="26.4997743"></ellipse>
                            <path d="M21.2846406,25.402256 L0.0193710938,25.402256 C0.00758984375,25.7664028 0,26.1320165 0,26.4997743 C0,41.1352698 9.42907813,52.9995486 21.060457,52.9995486 C28.0482109,52.9995486 34.2399375,48.7162257 38.0709961,42.1237811 L21.2846406,25.402256 Z" id="Path" fill="url(#linearGradient-5)"></path>
                            <path d="M0,26.4997743 C0,41.1352698 9.42907813,52.9995486 21.060457,52.9995486 C32.6918359,52.9995486 42.1209141,41.1352698 42.1209141,26.4997743 C42.1209141,25.9697472 42.1070938,25.4437825 42.0827383,24.9214288 L0.0382890625,24.9214288 C0.0138203125,25.4437825 0,25.9697472 0,26.4997743 Z" id="Path" fill="url(#linearGradient-6)"></path>
                            <path d="M16.5232031,24.9214288 L0.0382890625,24.9214288 C0.0139335938,25.4437825 0.00011328125,25.9697472 0.00011328125,26.4997743 C0.00011328125,39.1749483 7.07305469,49.769622 16.5232031,52.3809392 L16.5232031,24.9214288 Z" id="Path" fill="url(#linearGradient-7)"></path>
                            <path d="M21.060457,0 C19.8779141,0 18.7188203,0.124579497 17.5894063,0.360310086 L17.5894063,52.6393514 C18.7188203,52.875082 19.8780273,52.9996615 21.060457,52.9996615 C32.6918359,52.9996615 42.1209141,41.1352698 42.1209141,26.4998872 C42.1209141,11.8645045 32.6918359,0 21.060457,0 Z" id="Path" fill="url(#linearGradient-8)"></path>
                            <path d="M21.060457,4.73018421 C11.5058633,4.73018421 3.75957813,14.4774014 3.75957813,26.4997743 C3.75957813,38.5221472 11.5058633,48.2693644 21.060457,48.2693644 C30.6150508,48.2693644 38.3614492,38.5221472 38.3614492,26.4997743 C38.3614492,14.4774014 30.6151641,4.73018421 21.060457,4.73018421 L21.060457,4.73018421 Z M21.060457,43.9161912 C13.4162383,43.9161912 7.2191875,36.1178983 7.2191875,26.4997743 C7.2191875,16.8816503 13.4162383,9.08335746 21.060457,9.08335746 C28.7046758,9.08335746 34.9017266,16.8815375 34.9017266,26.4997743 C34.9017266,36.1180111 28.7046758,43.9161912 21.060457,43.9161912 Z" id="Shape" fill="url(#linearGradient-9)"></path>
                            <path d="M21.060457,13.8062068 C15.4886055,13.8062068 10.972875,19.4892436 10.972875,26.4997743 C10.972875,33.510305 15.4886055,39.1933418 21.060457,39.1933418 C26.6323086,39.1933418 31.1481523,33.510305 31.1481523,26.4997743 C31.1481523,19.4892436 26.6323086,13.8062068 21.060457,13.8062068 Z M21.060457,34.1057814 C17.7216055,34.1057814 15.0153164,30.7003828 15.0153164,26.4997743 C15.0153164,22.2991658 17.7214922,18.8937672 21.060457,18.8937672 C24.3994219,18.8937672 27.1055977,22.2991658 27.1055977,26.4997743 C27.1055977,30.7003828 24.3994219,34.1057814 21.060457,34.1057814 Z" id="Shape" fill="url(#linearGradient-10)"></path>
                            <path d="M26.2678828,30.3658011 C25.2155,32.6046211 23.2772578,34.1054429 21.0603438,34.1054429 C17.7219453,34.1054429 15.0156563,30.6998186 15.0156563,26.4997743 C15.0156563,26.1262615 15.0371797,25.7595193 15.0779609,25.4018046 L11.0111641,25.4018046 C10.9851094,25.7640331 10.9726484,26.1296468 10.9726484,26.4997743 C10.9726484,33.5107564 15.4891719,39.1935675 21.0603438,39.1935675 C24.563,39.1935675 27.6476484,36.9491053 29.4544844,33.5400957 L26.2678828,30.3658011 Z" id="Path" fill="url(#linearGradient-11)"></path>
                        </g>
                    </g>
                    <path d="M41.7373438,36.479901 C39.2349609,40.9767244 35.0866016,43.916304 30.3933594,43.916304 C22.7491406,43.916304 16.5526563,36.1176726 16.5526563,26.5 C16.5526563,26.1310009 16.5617188,25.7653872 16.5798438,25.4020303 L13.1145703,25.4020303 C13.0998438,25.7653872 13.0930469,26.1321294 13.0930469,26.5 C13.0930469,38.5223729 20.8392188,48.2698158 30.3933594,48.2698158 C36.1865625,48.2698158 41.3136719,44.6870268 44.4549609,39.1870225 L41.7373438,36.479901 Z" id="Path" fill="url(#linearGradient-12)"></path>
                    <g id="Group" transform="translate(0, 16.203)">
                        <g id="Path">
                            <path d="M20.7946618,10.296992 L6.28559932,10.296992 L0.192200887,1.64751872 C-0.2960413,0.954658105 0.2023962,0 1.05200557,0 L1.68184932,0 C2.29696651,0 2.87356807,0.297907494 3.22587276,0.800062171 L4.62716182,2.788369 L4.08001339,0.876795919 C3.9542712,0.437833741 4.28505245,0 4.74384151,0 L7.24871651,0 C7.36879464,0 7.48445479,0.0449118115 7.57281417,0.125933622 L7.93384151,0.456678647 C8.08971651,0.599538831 8.32126339,0.623348862 8.50319307,0.515244552 C8.64875948,0.428806241 8.82932979,0.425420928 8.97806807,0.506329896 L9.54322823,0.813941951 C9.76525948,0.934797605 10.040986,0.891916981 10.2154392,0.709335797 C10.6835173,0.219368245 11.3840485,0.0283237806 12.039154,0.206052683 C13.3403024,0.559140769 14.4953181,1.35423782 15.2880603,2.48019273 L20.7946618,10.296992 Z" fill="url(#linearGradient-13)"></path>
                            <polygon fill="url(#linearGradient-14)" points="6.28559932 10.296992 20.7946618 10.296992 16.4873689 4.18289204 1.97830636 4.18289204"></polygon>
                            <path d="M15.2880603,2.48030557 C14.4952048,1.35435066 13.3403024,0.559253613 12.039154,0.206165527 C11.3840485,0.0284366244 10.6835173,0.219481089 10.2154392,0.709448641 C10.040986,0.892029825 9.76525948,0.934910449 9.54322823,0.814054795 L8.97806807,0.506442739 C8.82932979,0.425420928 8.64875948,0.428806241 8.50319307,0.515244552 C8.32126339,0.623236018 8.08971651,0.599425987 7.93384151,0.456678647 L7.57281417,0.125933622 C7.48445479,0.0449118115 7.36879464,0 7.24871651,0 L4.74384151,0 C4.28505245,0 3.9542712,0.437833741 4.08001339,0.876795919 L4.61594698,2.74921222 L9.93302901,10.296992 L20.7945485,10.296992 L15.2880603,2.48030557 Z" fill="url(#linearGradient-15)"></path>
                            <path d="M15.2880603,2.48030557 C14.4952048,1.35435066 13.3403024,0.559253613 12.039154,0.206165527 C11.3840485,0.0284366244 10.6835173,0.219481089 10.2154392,0.709448641 C10.040986,0.892029825 9.76525948,0.934910449 9.54322823,0.814054795 L8.97806807,0.506442739 C8.82932979,0.425420928 8.64875948,0.428806241 8.50319307,0.515244552 C8.32126339,0.623236018 8.08971651,0.599425987 7.93384151,0.456678647 L7.57281417,0.125933622 C7.48445479,0.0449118115 7.36879464,0 7.24871651,0 L4.74384151,0 C4.57788448,0 4.4291462,0.0578888425 4.31223995,0.151774841 C4.41181417,0.162043622 4.51127511,0.179421559 4.60971651,0.206165527 C5.91086495,0.559253613 7.06588057,1.35435066 7.85862276,2.48030557 L13.3652243,10.296992 L20.7946618,10.296992 L15.2880603,2.48030557 Z" fill="url(#linearGradient-16)"></path>
                            <path d="M15.2880603,2.48030557 C14.4952048,1.35435066 13.3403024,0.559253613 12.039154,0.206165527 C11.3840485,0.0284366244 10.6835173,0.219481089 10.2154392,0.709448641 C10.040986,0.892029825 9.76525948,0.934910449 9.54322823,0.814054795 L8.97806807,0.506442739 C8.82932979,0.425420928 8.64875948,0.428806241 8.50319307,0.515244552 C8.38175557,0.587351706 8.23856807,0.599425987 8.11022042,0.557899488 C9.01624386,0.98343326 9.81034542,1.63950681 10.4023532,2.48030557 L15.9089548,10.296992 L20.7946618,10.296992 L15.2880603,2.48030557 Z" fill="url(#linearGradient-17)"></path>
                            <path d="M15.2880603,2.48030557 C14.4952048,1.35435066 13.3403024,0.559253613 12.039154,0.206165527 C11.3840485,0.0284366244 10.6835173,0.219481089 10.2154392,0.709448641 C10.040986,0.892029825 9.76525948,0.934910449 9.54322823,0.814054795 L8.97806807,0.506442739 C8.82932979,0.425420928 8.64875948,0.428806241 8.50319307,0.515244552 C8.38175557,0.587351706 8.23856807,0.599425987 8.11022042,0.557899488 C9.01624386,0.98343326 9.81034542,1.63950681 10.4023532,2.48030557 L15.9089548,10.296992 L20.7946618,10.296992 L15.2880603,2.48030557 Z" fill="url(#linearGradient-18)"></path>
                        </g>
                        <g transform="translate(0, 10.297)" id="Path">
                            <path d="M20.7946618,0 L6.28559932,0 L0.192200887,8.64947325 C-0.2960413,9.34233386 0.2023962,10.296992 1.05200557,10.296992 L1.68184932,10.296992 C2.29696651,10.296992 2.87356807,9.99908448 3.22587276,9.4969298 L4.62716182,7.50862297 L4.08001339,9.42019605 C3.9542712,9.85915823 4.28505245,10.296992 4.74384151,10.296992 L7.24871651,10.296992 C7.36879464,10.296992 7.48445479,10.2520802 7.57281417,10.1710583 L7.93384151,9.84031332 C8.08971651,9.69745314 8.32126339,9.67364311 8.50319307,9.78174742 C8.64875948,9.86818573 8.82932979,9.87157104 8.97806807,9.79066207 L9.54322823,9.48305002 C9.76525948,9.36219436 10.040986,9.40507499 10.2154392,9.58765617 C10.6835173,10.0776237 11.3840485,10.2686682 12.039154,10.0909393 C13.3403024,9.7378512 14.4953181,8.94275415 15.2880603,7.81679924 L20.7946618,0 Z" fill="url(#linearGradient-19)"></path>
                            <path d="M2.88557589,4.8261014 L0.192200887,8.64947325 C-0.2960413,9.34233386 0.2023962,10.296992 1.05200557,10.296992 L1.68184932,10.296992 C2.29696651,10.296992 2.87356807,9.99908448 3.22587276,9.4969298 L4.62716182,7.50862297 L4.08001339,9.42019605 C3.9542712,9.85915823 4.28505245,10.296992 4.74384151,10.296992 L7.24871651,10.296992 C7.36879464,10.296992 7.48445479,10.2520802 7.57281417,10.1710583 L7.93384151,9.84031332 C8.08971651,9.69745314 8.32126339,9.67364311 8.50319307,9.78174742 C8.64875948,9.86818573 8.82932979,9.87157104 8.97806807,9.79066207 L9.54322823,9.48305002 C9.76525948,9.36219436 10.040986,9.40507499 10.2154392,9.58765617 C10.6835173,10.0776237 11.3840485,10.2686682 12.039154,10.0909393 C13.3403024,9.7378512 14.4953181,8.94275415 15.2880603,7.81679924 L17.3947517,4.82621424 L2.88557589,4.82621424 L2.88557589,4.8261014 Z" fill="url(#linearGradient-20)"></path>
                            <path d="M15.2880603,7.8166864 C14.4952048,8.94264131 13.3403024,9.73773836 12.039154,10.0908264 C11.3840485,10.2685553 10.6835173,10.0775109 10.2154392,9.58754333 C10.040986,9.40496214 9.76525948,9.36208152 9.54322823,9.48293717 L8.97806807,9.79054923 C8.82932979,9.87157104 8.64875948,9.86818573 8.50319307,9.78174742 C8.32126339,9.67375595 8.08971651,9.69756598 7.93384151,9.84031332 L7.57281417,10.1710583 C7.48445479,10.2520802 7.36879464,10.296992 7.24871651,10.296992 L4.74384151,10.296992 C4.28505245,10.296992 3.9542712,9.85915823 4.08001339,9.42019605 L4.61594698,7.54777975 L9.93302901,0 L20.7945485,0 L15.2880603,7.8166864 Z" fill="url(#linearGradient-21)"></path>
                            <path d="M15.2880603,7.8166864 C14.4952048,8.94264131 13.3403024,9.73773836 12.039154,10.0908264 C11.3840485,10.2685553 10.6835173,10.0775109 10.2154392,9.58754333 C10.040986,9.40496214 9.76525948,9.36208152 9.54322823,9.48293717 L8.97806807,9.79054923 C8.82932979,9.87157104 8.64875948,9.86818573 8.50319307,9.78174742 C8.32126339,9.67375595 8.08971651,9.69756598 7.93384151,9.84031332 L7.57281417,10.1710583 C7.48445479,10.2520802 7.36879464,10.296992 7.24871651,10.296992 L4.74384151,10.296992 C4.57788448,10.296992 4.4291462,10.2391031 4.31223995,10.1452171 C4.41181417,10.1349483 4.51127511,10.1175704 4.60971651,10.0908264 C5.91086495,9.73773836 7.06588057,8.94264131 7.85862276,7.8166864 L13.3652243,0 L20.7946618,0 L15.2880603,7.8166864 Z" fill="url(#linearGradient-22)"></path>
                            <path d="M15.2880603,7.8166864 C14.4952048,8.94264131 13.3403024,9.73773836 12.039154,10.0908264 C11.3840485,10.2685553 10.6835173,10.0775109 10.2154392,9.58754333 C10.040986,9.40496214 9.76525948,9.36208152 9.54322823,9.48293717 L8.97806807,9.79054923 C8.82932979,9.87157104 8.64875948,9.86818573 8.50319307,9.78174742 C8.38175557,9.70964026 8.23856807,9.69756598 8.11022042,9.73909248 C9.01624386,9.31355871 9.81034542,8.65748516 10.4023532,7.8166864 L15.9089548,0 L20.7946618,0 L15.2880603,7.8166864 Z" fill="url(#linearGradient-23)"></path>
                            <path d="M15.2880603,7.8166864 C14.4952048,8.94264131 13.3403024,9.73773836 12.039154,10.0908264 C11.3840485,10.2685553 10.6835173,10.0775109 10.2154392,9.58754333 C10.040986,9.40496214 9.76525948,9.36208152 9.54322823,9.48293717 L8.97806807,9.79054923 C8.82932979,9.87157104 8.64875948,9.86818573 8.50319307,9.78174742 C8.38175557,9.70964026 8.23856807,9.69756598 8.11022042,9.73909248 C9.01624386,9.31355871 9.81034542,8.65748516 10.4023532,7.8166864 L15.9089548,0 L20.7946618,0 L15.2880603,7.8166864 Z" fill="url(#linearGradient-24)"></path>
                        </g>
                    </g>
                    <path d="M31.055375,26.5 L31.055375,26.5162495 C31.054582,27.3793913 30.3518984,28.078684 29.4854102,28.078684 L1.58480469,28.078684 C0.70959375,28.078684 0,27.3719436 0,26.5 C0,25.6281692 0.70959375,24.921316 1.58480469,24.921316 L29.4855234,24.921316 C30.3520117,24.921316 31.054582,25.6206087 31.055375,26.4837505 L31.055375,26.5 Z" id="Path" fill="url(#linearGradient-25)"></path>
                </g>
            </g>
        </g>
    </g>
</svg>